<svg width="20" height="20" viewBox="0 0 20 20" fill="none" xmlns="http://www.w3.org/2000/svg">
<path fill-rule="evenodd" clip-rule="evenodd" d="M13.8824 1.66667C16.6574 1.66667 18.7499 3.93083 18.7499 6.93333V12.6567C18.7499 14.1933 18.2066 15.5817 17.2191 16.5667C16.3332 17.4492 15.1841 17.9167 13.8958 17.9167H5.68492C4.39908 17.9167 3.25075 17.45 2.36409 16.5667C1.37659 15.5817 0.833252 14.1933 0.833252 12.6567V6.93333C0.833252 3.93083 2.92575 1.66667 5.70075 1.66667H13.8824ZM13.8824 2.91667H5.70075C3.60492 2.91667 2.08325 4.60583 2.08325 6.93333V12.6567C2.08325 13.8592 2.49659 14.9333 3.24658 15.6808C3.89325 16.3267 4.73742 16.6667 5.68742 16.6667H13.8824C13.8841 16.665 13.8907 16.6667 13.8958 16.6667C14.8466 16.6667 15.6899 16.3267 16.3366 15.6808C17.0874 14.9333 17.4999 13.8592 17.4999 12.6567V6.93333C17.4999 4.60583 15.9782 2.91667 13.8824 2.91667ZM15.1957 6.774C15.4132 7.0415 15.3724 7.43483 15.1049 7.65317L11.4016 10.6632C10.9333 11.0348 10.3733 11.2207 9.81408 11.2207C9.25658 11.2207 8.70075 11.0365 8.23575 10.6682L4.49825 7.65483C4.22908 7.43817 4.18742 7.044 4.40325 6.77567C4.62075 6.50817 5.01408 6.46567 5.28242 6.6815L9.01658 9.6915C9.48575 10.0632 10.1466 10.0632 10.6191 9.68817L14.3157 6.68317C14.5841 6.464 14.9774 6.50567 15.1957 6.774Z" fill="#677294"/>
</svg>
