<svg width="20" height="20" viewBox="0 0 20 20" fill="none" xmlns="http://www.w3.org/2000/svg">
<g clip-path="url(#clip0_56_528)">
<path d="M10.4167 11.6667C11.5673 11.6667 12.5 10.7339 12.5 9.58333C12.5 8.43274 11.5673 7.5 10.4167 7.5C9.26611 7.5 8.33337 8.43274 8.33337 9.58333C8.33337 10.7339 9.26611 11.6667 10.4167 11.6667Z" stroke="white" stroke-linecap="round" stroke-linejoin="round"/>
<path d="M14.2469 13.4018L11.3741 16.271C11.1201 16.5244 10.7759 16.6667 10.417 16.6667C10.0581 16.6667 9.71386 16.5244 9.45995 16.271L6.58641 13.4018C5.8289 12.6452 5.31304 11.6813 5.10406 10.6319C4.89508 9.58245 5.00237 8.49472 5.41235 7.50622C5.82233 6.51771 6.5166 5.67282 7.40736 5.07839C8.29812 4.48396 9.34536 4.16669 10.4167 4.16669C11.488 4.16669 12.5352 4.48396 13.426 5.07839C14.3167 5.67282 15.011 6.51771 15.421 7.50622C15.831 8.49472 15.9383 9.58245 15.7293 10.6319C15.5203 11.6813 15.0044 12.6452 14.2469 13.4018V13.4018Z" stroke="white" stroke-linecap="round" stroke-linejoin="round"/>
</g>
<defs>
<clipPath id="clip0_56_528">
<rect width="20" height="20" fill="white"/>
</clipPath>
</defs>
</svg>
