<svg width="26" height="26" viewBox="0 0 26 26" fill="none" xmlns="http://www.w3.org/2000/svg">
<g opacity="0.5" clip-path="url(#clip0_56_580)">
<path d="M7.58333 11.9167V20.5834C7.58333 20.8707 7.4692 21.1462 7.26603 21.3494C7.06287 21.5526 6.78732 21.6667 6.5 21.6667H4.33333C4.04602 21.6667 3.77047 21.5526 3.5673 21.3494C3.36414 21.1462 3.25 20.8707 3.25 20.5834V13C3.25 12.7127 3.36414 12.4372 3.5673 12.234C3.77047 12.0308 4.04602 11.9167 4.33333 11.9167H7.58333ZM7.58333 11.9167C8.7326 11.9167 9.8348 11.4602 10.6475 10.6475C11.4601 9.83485 11.9167 8.73265 11.9167 7.58337V6.50004C11.9167 5.9254 12.1449 5.3743 12.5513 4.96798C12.9576 4.56165 13.5087 4.33337 14.0833 4.33337C14.658 4.33337 15.2091 4.56165 15.6154 4.96798C16.0217 5.3743 16.25 5.9254 16.25 6.50004V11.9167H19.5C20.0746 11.9167 20.6257 12.145 21.0321 12.5513C21.4384 12.9576 21.6667 13.5087 21.6667 14.0834L20.5833 19.5C20.4275 20.1646 20.132 20.7353 19.7412 21.1261C19.3504 21.5169 18.8856 21.7066 18.4167 21.6667H10.8333C9.97138 21.6667 9.14473 21.3243 8.53524 20.7148C7.92574 20.1053 7.58333 19.2787 7.58333 18.4167" stroke="#ABABB7" stroke-width="1.5" stroke-linecap="round" stroke-linejoin="round"/>
</g>
<defs>
<clipPath id="clip0_56_580">
<rect width="26" height="26" fill="white"/>
</clipPath>
</defs>
</svg>
