<svg width="20" height="20" viewBox="0 0 20 20" fill="none" xmlns="http://www.w3.org/2000/svg">
<g clip-path="url(#clip0_56_1518)">
<path d="M10 6.66666V10L11.6667 11.6667" stroke="#8F919A" stroke-width="1.5" stroke-linecap="round" stroke-linejoin="round"/>
<path d="M2.54163 9.16666C2.72837 7.33338 3.58351 5.63301 4.9439 4.38997C6.30429 3.14693 8.0747 2.44823 9.91736 2.42719C11.76 2.40614 13.5459 3.06422 14.9343 4.27586C16.3228 5.4875 17.2165 7.1679 17.4451 8.99644C17.6737 10.825 17.221 12.6737 16.1736 14.1898C15.1261 15.7059 13.5572 16.7834 11.766 17.2165C9.97489 17.6497 8.08697 17.4083 6.46246 16.5384C4.83794 15.6685 3.59056 14.2309 2.95829 12.5M2.54163 16.6667V12.5H6.70829" stroke="#8F919A" stroke-width="1.5" stroke-linecap="round" stroke-linejoin="round"/>
</g>
<defs>
<clipPath id="clip0_56_1518">
<rect width="20" height="20" fill="white"/>
</clipPath>
</defs>
</svg>
