<svg width="20" height="20" viewBox="0 0 20 20" fill="none" xmlns="http://www.w3.org/2000/svg">
<path fill-rule="evenodd" clip-rule="evenodd" d="M10.3125 1.66833C12.7458 1.66833 14.7275 3.65 14.7275 6.08583L14.7274 7.39967C16.2067 7.91451 17.2709 9.32284 17.2709 10.9757V14.5498C17.2709 16.6373 15.5734 18.3348 13.4859 18.3348H7.11837C5.03087 18.3348 3.33337 16.6373 3.33337 14.5498V10.9757C3.33337 9.32316 4.39714 7.91504 5.87605 7.39996L5.87662 6.08583C5.88162 4.88583 6.34579 3.77833 7.18329 2.94833C8.02162 2.1175 9.12829 1.63667 10.3125 1.66833ZM13.4859 8.44067H7.11837C5.72004 8.44067 4.58337 9.57733 4.58337 10.9757V14.5498C4.58337 15.9482 5.72004 17.0848 7.11837 17.0848H13.4859C14.8834 17.0848 16.0209 15.9482 16.0209 14.5498V10.9757C16.0209 9.57733 14.8834 8.44067 13.4859 8.44067ZM10.302 11.2122C10.647 11.2122 10.927 11.4922 10.927 11.8372V13.688C10.927 14.033 10.647 14.313 10.302 14.313C9.95696 14.313 9.67696 14.033 9.67696 13.688V11.8372C9.67696 11.4922 9.95696 11.2122 10.302 11.2122ZM10.31 2.91833H10.2966C9.45246 2.91833 8.66162 3.24333 8.06412 3.83583C7.46246 4.43084 7.12996 5.225 7.12662 6.07167L7.12587 7.1902H13.4767L13.4775 6.08583C13.4775 4.33917 12.0566 2.91833 10.31 2.91833Z" fill="#677294"/>
</svg>
