<svg width="18" height="22" viewBox="0 0 18 22" fill="none" xmlns="http://www.w3.org/2000/svg">
<path d="M8.7543 13.8436L9.11456 13.8452C14.4672 13.8915 17.5086 14.9898 17.5086 17.9335C17.5086 20.8078 14.6124 21.904 9.46947 21.9939L8.7543 22C3.17811 22 0 20.9192 0 17.9101C0 14.9044 3.16407 13.8436 8.7543 13.8436ZM8.7543 15.5107L8.38008 15.5125C3.94912 15.5549 1.66706 16.3619 1.66706 17.9101C1.66706 19.5107 4.0849 20.3329 8.7543 20.3329C13.4296 20.3329 15.8415 19.5241 15.8415 17.9335C15.8415 16.3329 13.4237 15.5107 8.7543 15.5107ZM8.7543 0C12.0331 0 14.6646 2.6315 14.6646 5.91029C14.6646 9.18833 12.0327 11.8206 8.7543 11.8206C5.47662 11.8206 2.84401 9.18797 2.84401 5.91029C2.84401 2.63186 5.47626 0 8.7543 0ZM8.7543 1.66706C6.3969 1.66706 4.51107 3.5526 4.51107 5.91029C4.51107 8.26728 6.39731 10.1535 8.7543 10.1535C11.112 10.1535 12.9975 8.26769 12.9975 5.91029C12.9975 3.55219 11.1124 1.66706 8.7543 1.66706Z" fill="#677294"/>
</svg>
