<svg width="24" height="24" viewBox="0 0 24 24" fill="none" xmlns="http://www.w3.org/2000/svg">
<path fill-rule="evenodd" clip-rule="evenodd" d="M10.8572 14.501L15.2804 21.6772C15.4739 21.9916 15.7763 21.988 15.8985 21.9711C16.0206 21.9542 16.3146 21.8792 16.421 21.5224L21.9522 2.84115C22.0489 2.51095 21.8711 2.28597 21.7913 2.20614C21.7139 2.12631 21.4926 1.95577 21.172 2.04649L2.47752 7.52082C2.12313 7.62484 2.04572 7.92239 2.02878 8.04455C2.01185 8.16913 2.00701 8.47756 2.32028 8.67471L9.57868 13.2141L15.9916 6.73342C16.3436 6.37781 16.9181 6.37419 17.2749 6.72616C17.6317 7.07813 17.6342 7.65387 17.2822 8.00947L10.8572 14.501ZM15.8041 23.7926C14.9623 23.7926 14.1906 23.3645 13.7358 22.6291L9.04648 15.0199L1.3587 10.212C0.530176 9.69314 0.0971636 8.76906 0.231422 7.7978C0.36447 6.82655 1.03092 6.05487 1.9671 5.78031L20.6616 0.305971C21.5216 0.0543884 22.4432 0.292666 23.077 0.924041C23.7108 1.56146 23.9467 2.4928 23.6903 3.35641L18.1591 22.0364C17.8821 22.9762 17.108 23.6402 16.1392 23.7697C16.0255 23.7842 15.9154 23.7926 15.8041 23.7926Z" fill="#2C3E50" stroke="#2C3E50" stroke-width="0.4"/>
</svg>
