<svg width="22" height="22" viewBox="0 0 22 22" fill="none" xmlns="http://www.w3.org/2000/svg">
<g clip-path="url(#clip0_56_513)">
<path d="M6.41667 10.0833V17.4167C6.41667 17.6598 6.32009 17.8929 6.14818 18.0648C5.97627 18.2367 5.74311 18.3333 5.5 18.3333H3.66667C3.42355 18.3333 3.19039 18.2367 3.01849 18.0648C2.84658 17.8929 2.75 17.6598 2.75 17.4167V11C2.75 10.7569 2.84658 10.5237 3.01849 10.3518C3.19039 10.1799 3.42355 10.0833 3.66667 10.0833H6.41667C7.38913 10.0833 8.32176 9.69701 9.00939 9.00938C9.69702 8.32175 10.0833 7.38912 10.0833 6.41666V5.49999C10.0833 5.01376 10.2765 4.54744 10.6203 4.20363C10.9641 3.85981 11.4304 3.66666 11.9167 3.66666C12.4029 3.66666 12.8692 3.85981 13.213 4.20363C13.5568 4.54744 13.75 5.01376 13.75 5.49999V10.0833H16.5C16.9862 10.0833 17.4525 10.2765 17.7964 10.6203C18.1402 10.9641 18.3333 11.4304 18.3333 11.9167L17.4167 16.5C17.2848 17.0623 17.0348 17.5452 16.7041 17.8759C16.3734 18.2065 15.9801 18.3671 15.5833 18.3333H9.16667C8.43732 18.3333 7.73785 18.0436 7.22212 17.5279C6.7064 17.0121 6.41667 16.3127 6.41667 15.5833" fill="white"/>
<path d="M6.41667 10.0833V17.4167C6.41667 17.6598 6.32009 17.8929 6.14818 18.0648C5.97627 18.2367 5.74311 18.3333 5.5 18.3333H3.66667C3.42355 18.3333 3.19039 18.2367 3.01849 18.0648C2.84658 17.8929 2.75 17.6598 2.75 17.4167V11C2.75 10.7569 2.84658 10.5237 3.01849 10.3518C3.19039 10.1799 3.42355 10.0833 3.66667 10.0833H6.41667ZM6.41667 10.0833C7.38913 10.0833 8.32176 9.69701 9.00939 9.00938C9.69702 8.32175 10.0833 7.38912 10.0833 6.41666V5.49999C10.0833 5.01376 10.2765 4.54744 10.6203 4.20363C10.9641 3.85981 11.4304 3.66666 11.9167 3.66666C12.4029 3.66666 12.8692 3.85981 13.213 4.20363C13.5568 4.54744 13.75 5.01376 13.75 5.49999V10.0833H16.5C16.9862 10.0833 17.4525 10.2765 17.7964 10.6203C18.1402 10.9641 18.3333 11.4304 18.3333 11.9167L17.4167 16.5C17.2848 17.0623 17.0348 17.5452 16.7041 17.8759C16.3734 18.2065 15.9801 18.3671 15.5833 18.3333H9.16667C8.43732 18.3333 7.73785 18.0436 7.22212 17.5279C6.7064 17.0121 6.41667 16.3127 6.41667 15.5833" stroke="white" stroke-width="1.5" stroke-linecap="round" stroke-linejoin="round"/>
</g>
<defs>
<clipPath id="clip0_56_513">
<rect width="22" height="22" fill="white"/>
</clipPath>
</defs>
</svg>
