<svg width="22" height="22" viewBox="0 0 22 22" fill="none" xmlns="http://www.w3.org/2000/svg">
<path fill-rule="evenodd" clip-rule="evenodd" d="M10.7605 1.83334C15.683 1.83334 19.687 5.83734 19.687 10.7598C19.687 13.0823 18.7958 15.2004 17.3373 16.7901L20.2072 19.654C20.4757 19.9226 20.4767 20.3571 20.2081 20.6256C20.0742 20.7613 19.8973 20.8282 19.7213 20.8282C19.5462 20.8282 19.3702 20.7613 19.2355 20.6275L16.331 17.7311C14.8031 18.9547 12.8658 19.6873 10.7605 19.6873C5.83805 19.6873 1.83313 15.6823 1.83313 10.7598C1.83313 5.83734 5.83805 1.83334 10.7605 1.83334ZM10.7605 3.20834C6.59613 3.20834 3.20813 6.59542 3.20813 10.7598C3.20813 14.9243 6.59613 18.3123 10.7605 18.3123C14.924 18.3123 18.312 14.9243 18.312 10.7598C18.312 6.59542 14.924 3.20834 10.7605 3.20834Z" fill="#576170" stroke="#576170" stroke-width="0.5"/>
</svg>
